<?xml version="1.0" encoding="UTF-8" standalone="no"?>
<svg
   xmlns:dc="http://purl.org/dc/elements/1.1/"
   xmlns:cc="http://creativecommons.org/ns#"
   xmlns:rdf="http://www.w3.org/1999/02/22-rdf-syntax-ns#"
   xmlns:svg="http://www.w3.org/2000/svg"
   xmlns="http://www.w3.org/2000/svg"
   xmlns:sodipodi="http://sodipodi.sourceforge.net/DTD/sodipodi-0.dtd"
   xmlns:inkscape="http://www.inkscape.org/namespaces/inkscape"
   enable-background="new 0 0 170 400"
   viewBox="0 0 170 400"
   id="svg2"
   version="1.1"
   inkscape:version="0.91pre3 r13670"
   sodipodi:docname="chess king.svg">
  <metadata
     id="metadata54">
    <rdf:RDF>
      <cc:Work
         rdf:about="">
        <dc:format>image/svg+xml</dc:format>
        <dc:type
           rdf:resource="http://purl.org/dc/dcmitype/StillImage" />
      </cc:Work>
    </rdf:RDF>
  </metadata>
  <defs
     id="defs52" />
  <sodipodi:namedview
     pagecolor="#ffffff"
     bordercolor="#666666"
     borderopacity="1"
     objecttolerance="10"
     gridtolerance="10"
     guidetolerance="10"
     inkscape:pageopacity="0"
     inkscape:pageshadow="2"
     inkscape:window-width="1920"
     inkscape:window-height="1138"
     id="namedview50"
     showgrid="false"
     inkscape:zoom="1.18"
     inkscape:cx="59.148107"
     inkscape:cy="167.80016"
     inkscape:window-x="-8"
     inkscape:window-y="-8"
     inkscape:window-maximized="1"
     inkscape:current-layer="svg2" />
  <g
     id="g4182"
     transform="translate(231.35593,-0.84745763)"
     inkscape:export-filename="D:\Coding\LibGDX\chess\android\res\drawable-xxhdpi\introking_white.png"
     inkscape:export-xdpi="453.57617"
     inkscape:export-ydpi="453.57617"
     style="fill:#000000;stroke:#000000;stroke-opacity:1">
    <path
       id="path6"
       d="m 155.5,390.5 -140,0 c -2.761,0 -5,-2.238 -5,-5 l 0,-10 c 0,-2.762 2.239,-5 5,-5 l 140,0 c 2.762,0 5,2.238 5,5 l 0,10 c 0,2.762 -2.238,5 -5,5 z"
       inkscape:connector-curvature="0"
       style="fill-rule:evenodd;fill:#000000;stroke:#000000;stroke-opacity:1" />
    <path
       id="path8"
       stroke-miterlimit="1"
       d="m 155.5,390.5 -140,0 c -2.761,0 -5,-2.238 -5,-5 l 0,-10 c 0,-2.762 2.239,-5 5,-5 l 140,0 c 2.762,0 5,2.238 5,5 l 0,10 c 0,2.762 -2.238,5 -5,5 z"
       inkscape:connector-curvature="0"
       style="fill:#000000;stroke:#000000;stroke-linecap:round;stroke-linejoin:round;stroke-miterlimit:1;stroke-opacity:1" />
    <path
       id="path10"
       d="m 145.5,370.5 -120,0 c -2.761,0 -5,-2.238 -5,-5 l 0,-20 c 0,-2.762 2.239,-5 5,-5 l 120,0 c 2.762,0 5,2.238 5,5 l 0,20 c 0,2.762 -2.238,5 -5,5 z"
       inkscape:connector-curvature="0"
       style="fill-rule:evenodd;fill:#000000;stroke:#000000;stroke-opacity:1" />
    <path
       id="path12"
       stroke-miterlimit="1"
       d="m 145.5,370.5 -120,0 c -2.761,0 -5,-2.238 -5,-5 l 0,-20 c 0,-2.762 2.239,-5 5,-5 l 120,0 c 2.762,0 5,2.238 5,5 l 0,20 c 0,2.762 -2.238,5 -5,5 z"
       inkscape:connector-curvature="0"
       style="fill:#000000;stroke:#000000;stroke-linecap:round;stroke-linejoin:round;stroke-miterlimit:1;stroke-opacity:1" />
    <path
       id="path14"
       d="m 135.5,340.5 -100,0 c -2.761,0 -5,-2.238 -5,-5 0,-2.762 2.239,-5 5,-5 l 100,0 c 2.762,0 5,2.238 5,5 0,2.762 -2.238,5 -5,5 z"
       inkscape:connector-curvature="0"
       style="fill-rule:evenodd;fill:#000000;stroke:#000000;stroke-opacity:1" />
    <path
       id="path16"
       stroke-miterlimit="1"
       d="m 135.5,340.5 -100,0 c -2.761,0 -5,-2.238 -5,-5 0,-2.762 2.239,-5 5,-5 l 100,0 c 2.762,0 5,2.238 5,5 0,2.762 -2.238,5 -5,5 z"
       inkscape:connector-curvature="0"
       style="fill:#000000;stroke:#000000;stroke-linecap:round;stroke-linejoin:round;stroke-miterlimit:1;stroke-opacity:1" />
    <path
       id="path18"
       d="m 124.964,340.5 -80,0 c -2.761,0 -4.76,-2.238 -4.464,-5 l 13.929,-130 c 0.296,-2.762 2.774,-5 5.536,-5 l 50,0 c 2.762,0 5.24,2.238 5.536,5 l 13.929,130 c 0.295,2.762 -1.704,5 -4.466,5 z"
       inkscape:connector-curvature="0"
       style="fill-rule:evenodd;fill:#000000;stroke:#000000;stroke-opacity:1" />
    <path
       id="path20"
       stroke-miterlimit="1"
       d="m 124.964,340.5 -80,0 c -2.761,0 -4.76,-2.238 -4.464,-5 l 13.929,-130 c 0.296,-2.762 2.774,-5 5.536,-5 l 50,0 c 2.762,0 5.24,2.238 5.536,5 l 13.929,130 c 0.295,2.762 -1.704,5 -4.466,5 z"
       inkscape:connector-curvature="0"
       style="fill:#000000;stroke:#000000;stroke-linecap:round;stroke-linejoin:round;stroke-miterlimit:1;stroke-opacity:1" />
    <path
       id="path22"
       d="m 135.5,210.5 -100,0 c -2.761,0 -5,-2.238 -5,-5 l 0,-10 c 0,-2.761 2.239,-5 5,-5 l 100,0 c 2.762,0 5,2.239 5,5 l 0,10 c 0,2.762 -2.238,5 -5,5 z"
       inkscape:connector-curvature="0"
       style="fill-rule:evenodd;fill:#000000;stroke:#000000;stroke-opacity:1" />
    <path
       id="path24"
       stroke-miterlimit="1"
       d="m 135.5,210.5 -100,0 c -2.761,0 -5,-2.238 -5,-5 l 0,-10 c 0,-2.761 2.239,-5 5,-5 l 100,0 c 2.762,0 5,2.239 5,5 l 0,10 c 0,2.762 -2.238,5 -5,5 z"
       inkscape:connector-curvature="0"
       style="fill:#000000;stroke:#000000;stroke-linecap:round;stroke-linejoin:round;stroke-miterlimit:1;stroke-opacity:1" />
    <path
       id="path26"
       d="m 125.5,190.5 -80,0 c -2.761,0 -5,-2.239 -5,-5 0,-2.761 2.239,-5 5,-5 l 80,0 c 2.762,0 5,2.239 5,5 0,2.761 -2.238,5 -5,5 z"
       inkscape:connector-curvature="0"
       style="fill-rule:evenodd;fill:#000000;stroke:#000000;stroke-opacity:1" />
    <path
       id="path28"
       stroke-miterlimit="1"
       d="m 125.5,190.5 -80,0 c -2.761,0 -5,-2.239 -5,-5 0,-2.761 2.239,-5 5,-5 l 80,0 c 2.762,0 5,2.239 5,5 0,2.761 -2.238,5 -5,5 z"
       inkscape:connector-curvature="0"
       style="fill:#000000;stroke:#000000;stroke-linecap:round;stroke-linejoin:round;stroke-miterlimit:1;stroke-opacity:1" />
    <path
       id="path30"
       d="m 115.5,180.5 -60,0 c -2.761,0 -5,-2.239 -5,-5 0,-2.761 2.239,-5 5,-5 l 60,0 c 2.762,0 5,2.239 5,5 0,2.761 -2.238,5 -5,5 z"
       inkscape:connector-curvature="0"
       style="fill-rule:evenodd;fill:#000000;stroke:#000000;stroke-opacity:1" />
    <path
       id="path32"
       stroke-miterlimit="1"
       d="m 115.5,180.5 -60,0 c -2.761,0 -5,-2.239 -5,-5 0,-2.761 2.239,-5 5,-5 l 60,0 c 2.762,0 5,2.239 5,5 0,2.761 -2.238,5 -5,5 z"
       inkscape:connector-curvature="0"
       style="fill:#000000;stroke:#000000;stroke-linecap:round;stroke-linejoin:round;stroke-miterlimit:1;stroke-opacity:1" />
    <path
       id="path34"
       d="m 115.5,170.5 -60,0 c -2.761,0 -5,-2.239 -5,-5 0,-2.761 2.239,-5 5,-5 l 60,0 c 2.762,0 5,2.239 5,5 0,2.761 -2.238,5 -5,5 z"
       inkscape:connector-curvature="0"
       style="fill-rule:evenodd;fill:#000000;stroke:#000000;stroke-opacity:1" />
    <path
       id="path36"
       stroke-miterlimit="1"
       d="m 115.5,170.5 -60,0 c -2.761,0 -5,-2.239 -5,-5 0,-2.761 2.239,-5 5,-5 l 60,0 c 2.762,0 5,2.239 5,5 0,2.761 -2.238,5 -5,5 z"
       inkscape:connector-curvature="0"
       style="fill:#000000;stroke:#000000;stroke-linecap:round;stroke-linejoin:round;stroke-miterlimit:1;stroke-opacity:1" />
    <path
       id="path38"
       d="m 95.5,100.5 -20,0 c -2.761,0 -5,-2.239 -5,-5 l 0,-80 c 0,-2.761 2.239,-5 5,-5 l 20,0 c 2.762,0 5,2.239 5,5 l 0,80 c 0,2.761 -2.238,5 -5,5 z"
       inkscape:connector-curvature="0"
       style="fill-rule:evenodd;fill:#000000;stroke:#000000;stroke-opacity:1" />
    <path
       id="path40"
       stroke-miterlimit="1"
       d="m 95.5,100.5 -20,0 c -2.761,0 -5,-2.239 -5,-5 l 0,-80 c 0,-2.762 2.239,-5 5,-5 l 20,0 c 2.762,0 5,2.238 5,5 l 0,80 c 0,2.761 -2.238,5 -5,5 z"
       inkscape:connector-curvature="0"
       style="fill:#000000;stroke:#000000;stroke-linecap:round;stroke-linejoin:round;stroke-miterlimit:1;stroke-opacity:1" />
    <path
       id="path42"
       d="m 125.5,70.5 -80,0 c -2.761,0 -5,-2.239 -5,-5 l 0,-20 c 0,-2.761 2.239,-5 5,-5 l 80,0 c 2.762,0 5,2.239 5,5 l 0,20 c 0,2.761 -2.238,5 -5,5 z"
       inkscape:connector-curvature="0"
       style="fill-rule:evenodd;fill:#000000;stroke:#000000;stroke-opacity:1" />
    <path
       id="path44"
       stroke-miterlimit="1"
       d="m 125.5,70.5 -80,0 c -2.761,0 -5,-2.239 -5,-5 l 0,-20 c 0,-2.761 2.239,-5 5,-5 l 80,0 c 2.762,0 5,2.239 5,5 l 0,20 c 0,2.761 -2.238,5 -5,5 z"
       inkscape:connector-curvature="0"
       style="fill:#000000;stroke:#000000;stroke-linecap:round;stroke-linejoin:round;stroke-miterlimit:1;stroke-opacity:1" />
    <path
       id="path46"
       d="m 114.617,160.5 -58.235,0 c -2.68,0 -5.577,-2.239 -6.471,-5 L 30.5,95.5 c -0.894,-2.761 0.555,-5 3.235,-5 l 103.529,0 c 2.681,0 4.129,2.239 3.235,5 l -19.412,60 c -0.892,2.761 -3.789,5 -6.47,5 z"
       inkscape:connector-curvature="0"
       style="fill-rule:evenodd;fill:#000000;stroke:#000000;stroke-opacity:1" />
    <path
       id="path48"
       stroke-miterlimit="1"
       d="m 114.617,160.5 -58.235,0 c -2.68,0 -5.577,-2.239 -6.471,-5 L 30.5,95.5 c -0.894,-2.761 0.555,-5 3.235,-5 l 103.529,0 c 2.681,0 4.129,2.239 3.235,5 l -19.412,60 c -0.892,2.761 -3.789,5 -6.47,5 z"
       inkscape:connector-curvature="0"
       style="fill:#000000;stroke:#000000;stroke-linecap:round;stroke-linejoin:round;stroke-miterlimit:1;stroke-opacity:1" />
  </g>
</svg>
